# xmcd CD database file
# Copyright (C) 1997 Ti Kan
#
# Track frame offsets:
#  150
#  16077
#  28420
#  44977
#  58090
#  75577
#  89392
#  99792
#  111517
#  127717
#  140210
#  160237
#  172525
#  188365
#  200575
#
# Disc length: 2868 seconds
#
# Revision: 1
# Processed by: cddbd v1.4b41PL1 Copyright (c) Steve Scherf et al.
# Submitted via: CDWizzard Release:4.24
#
DISCID=c10b320f
DTITLE=5 Chinese Brothers - Let's Kill Saturday Night
DYEAR=1900
DGENRE=
TTITLE0=Let's Kill Saturday Night
TTITLE1=It's a Secret
TTITLE2=Three Cool Guys
TTITLE3=My Love For You Has Turned to Hate
TTITLE4=Marionette
TTITLE5=Look at the Rain
TTITLE6=That's What I Would Do
TTITLE7=Product of Dysfunction
TTITLE8=I'm Not Finished Yet
TTITLE9=Midnight at the Liberty
TTITLE10=Big Boots
TTITLE11=Blue Boy
TTITLE12=I Call My Pain By Your Name
TTITLE13=I Can See
TTITLE14=The Boy From New York City, The Girl From Tennessee
EXTD=
EXTT0=
EXTT1=
EXTT2=
EXTT3=
EXTT4=
EXTT5=
EXTT6=
EXTT7=
EXTT8=
EXTT9=
EXTT10=
EXTT11=
EXTT12=
EXTT13=
EXTT14=
PLAYORDER=
